# xmcd
#
# Track frame offsets:
#	150
#	21359
#	39067
#	63369
#	84078
#	105534
#	126874
#	150440
#	168157
#	186938
#	201331
#	226378
#	248584
#	281712
#	301189
#
# Disc length: 4234 seconds
#
# Revision: 3
# Processed by: cddbd v1.4PL0 Copyright (c) Steve Scherf et al.
# Submitted via: CDmax 1.8
#
DISCID=b510880f
DTITLE=Eric Clapton - Chronicles The Best of Eric Clapton
DYEAR=1999
DGENRE=Blues
TTITLE0=Blue eyes blue
TTITLE1=Change the world
TTITLE2=My father's eyes
TTITLE3=Tears in heaven
TTITLE4=Layla
TTITLE5=Pretending
TTITLE6=Bad love
TTITLE7=Before you accuse me(take a look at yoursef)
TTITLE8=It's in the way that you use it
TTITLE9=Forever man
TTITLE10=Running on faith
TTITLE11=She's waiting
TTITLE12=Rivers of tears
TTITLE13=(I) get lost
TTITLE14=Wonderful tonight (live edit)
EXTD=
EXTT0=
EXTT1=
EXTT2=
EXTT3=
EXTT4=
EXTT5=
EXTT6=
EXTT7=
EXTT8=
EXTT9=
EXTT10=
EXTT11=
EXTT12=
EXTT13=
EXTT14=
PLAYORDER=
